<svg id="Capa_1" data-name="Capa 1" xmlns="http://www.w3.org/2000/svg" viewBox="0 0 1080 288"><defs><style>.cls-1{fill:#fff;}</style></defs><path class="cls-1" d="M33.65,69.26h74.43l-1.8,17.35c14-14.19,25.53-19.24,35.31-19.24,6.31,0,12.79.63,19.24,4.42l-12.2,57.39c-8.36-2.21-17.35-4.42-30.91-4.42-14.51,0-21.63,9.78-23.77,19.87L76.31,227.57H0Z"/><path class="cls-1" d="M186.22-.11h76.31L243.22,90.71h.63c14.66-17,29.53-26.18,55.39-26.18,31.85,0,51.52,15.77,42.61,57.71l-22.4,105.33H243.14L264,129.49c2.48-11.66-.84-18.29-10-18.29-8.51,0-16.21,5-18.89,17.66l-21,98.71H137.81Z"/><path class="cls-1" d="M377.48,232.3l-29.35-163h80.73l3.57,87h.63l39.31-87h76.32L427.11,288.11H344.49Z"/><path class="cls-1" d="M568.69,115.93h-20.5l9.92-46.67h20.5L584,43.72l82-26.49-11.07,52H689.3l-9.92,46.67H645L634.68,164.5c-2.55,12,.36,16.08,9.51,16.08,5.36,0,11.67,0,19-1.89l-9.93,46.67c-18.14,3.78-37.1,6.94-52.24,6.94-29.64,0-55.13-9.15-47.63-44.47Z"/><path class="cls-1" d="M1035.24,64.53c-18,0-38.16,6-55.92,28.7C973.7,73.68,958,64.53,933.7,64.53c-18,0-38.17,6-55.92,28.7l-5.36,6.59c-1.63-25.27-19.25-35.29-44.62-35.29-25.86,0-40.73,9.15-55.39,26.18h-.63L791.09-.11H714.78L666.37,227.57h76.32l21-98.71c2.68-12.61,10.38-17.66,18.89-17.66,9.15,0,12.47,6.63,10,18.29L771.7,227.57h76.89l21-98.71c2.68-12.61,10.38-17.66,17.63-17.66s12,6,9.62,17l-21.11,99.34H952l21-98.71c2.68-12.61,10.37-17.66,17.62-17.66s12,6,9.63,17l-21.12,99.34h76.32l22.39-105.33C1086.76,80.3,1067.1,64.53,1035.24,64.53Z"/></svg>